<?xml version="1.0" encoding="utf-8"?>
<!-- Generator: Adobe Illustrator 16.0.0, SVG Export Plug-In . SVG Version: 6.00 Build 0)  -->
<!DOCTYPE svg PUBLIC "-//W3C//DTD SVG 1.1//EN" "http://www.w3.org/Graphics/SVG/1.1/DTD/svg11.dtd">
<svg version="1.1" id="ICON-UL.WS.Temp.18-06-2014" xmlns="http://www.w3.org/2000/svg" xmlns:xlink="http://www.w3.org/1999/xlink"
	 x="0px" y="0px" width="114.487px" height="114.487px" viewBox="0 0 114.487 114.487" enable-background="new 0 0 114.487 114.487"
	 xml:space="preserve">
    <g>
        <path fill="#a3101b" d="M97.741,16.743C75.42-5.578,39.076-5.585,16.747,16.746C-5.586,39.078-5.578,75.419,16.743,97.74
                c22.329,22.327,58.666,22.332,80.998,0C120.071,75.41,120.068,39.07,97.741,16.743z M75.527,86.131
                c-1.061,1.06-2.216,0.864-3.451-0.371L57.151,70.836L42.328,85.658c-1.251,1.25-2.393,1.434-3.44,0.387L28.353,75.51
                c-1.043-1.043-0.863-2.189,0.388-3.44l14.823-14.822L28.73,42.415c-1.238-1.239-1.428-2.387-0.367-3.449l10.521-10.519
                c1.046-1.046,2.192-0.858,3.433,0.38l14.832,14.833l14.931-14.928c1.243-1.245,2.396-1.43,3.439-0.386L86.052,38.88
                c1.048,1.048,0.858,2.197-0.384,3.44L70.736,57.249l14.926,14.926c1.235,1.236,1.432,2.39,0.385,3.438L75.527,86.131z"/>
    </g>
</svg>
