<svg version="1.1" xmlns="http://www.w3.org/2000/svg" xmlns:xlink="http://www.w3.org/1999/xlink">
    <Viewbox Stretch="Uniform">
        <defs>
            <!-- 1. calender icon -->
            <g id="calender">
                <!-- viewBox="0 0 69.873 77.937" -->
                <path fill-rule="evenodd" clip-rule="evenodd" d="M64.498,77.937H5.373C2.406,77.937,0,75.531,0,72.562V13.438c0-2.974,2.406-5.375,5.373-5.375h5.377v2.687c0,4.452,3.605,8.063,8.062,8.063c4.454,0,8.062-3.61,8.062-8.063V8.063h16.125v2.687c0,4.452,3.608,8.063,8.063,8.063c4.455,0,8.063-3.61,8.063-8.063V8.063h5.374c2.969,0,5.375,2.401,5.375,5.375v59.125C69.873,75.531,67.467,77.937,64.498,77.937z M64.498,26.875H5.373v45.687h59.125V26.875z M50.977,16.124c-2.92,0-5.29-2.369-5.29-5.291V5.29c0-2.923,2.37-5.29,5.29-5.29c2.922,0,5.294,2.367,5.294,5.29v5.543C56.271,13.755,53.898,16.124,50.977,16.124z M18.729,16.124c-2.923,0-5.294-2.369-5.294-5.291V5.29c0-2.923,2.371-5.29,5.294-5.29c2.919,0,5.289,2.367,5.289,5.29v5.543C24.019,13.755,21.648,16.124,18.729,16.124z"/>
            </g>
            <!-- // 1. calender icon -->
            
                        
            <!-- 2. alarm clock 5min icon -->
            <g id="alarmClock_i5">
                <!-- viewBox="0 0 84.373 90.445" -->
                <path d="M42.881,53.707V21.165c5.986,0,11.09,1.367,16.271,4.359L42.881,53.707z"/>
                <path fill-rule="evenodd" clip-rule="evenodd" d="M78.591,39.871c-4.263-11.819-14.668-20.889-27.597-23.771
	c3.314-4.755,8.805-7.886,15.039-7.886c10.129,0,18.34,8.216,18.34,18.346C84.373,31.818,82.134,36.528,78.591,39.871z
	 M43.315,8.903v11.535c17.601,0.718,31.657,15.175,31.657,32.948c0,7.42-2.479,14.244-6.609,19.764l7.648,13.246l-6.355,3.666
	l-6.545-11.338C57.382,83.511,50.01,86.4,41.958,86.4c-8.004,0-15.341-2.846-21.056-7.588l-6.721,11.633l-6.354-3.666l7.808-13.521
	c-4.182-5.533-6.689-12.402-6.689-19.871c0-17.655,13.864-32.034,31.298-32.931V8.903c-1.779-0.637-3.07-2.299-3.07-4.297
	C37.174,2.063,39.236,0,41.781,0c2.547,0,4.611,2.063,4.611,4.606C46.393,6.604,45.1,8.267,43.315,8.903z M16.28,53.386
	c0,14.18,11.497,25.68,25.678,25.68s25.682-11.5,25.682-25.68c0-14.182-11.501-25.68-25.682-25.68S16.28,39.204,16.28,53.386z
	 M5.786,39.871C2.244,36.528,0,31.818,0,26.561C0,16.431,8.213,8.215,18.346,8.215c6.23,0,11.72,3.131,15.033,7.886
	C20.451,18.982,10.052,28.052,5.786,39.871z"/>
            </g>
            <!-- // 2. alarm clock 5min icon -->
            
            <!-- 3. alarm clock 10min icon -->
            <g id="alarmClock_i10">
                <!-- viewBox="0 0 84.373 90.445" -->
                <path d="M55.568 26.898c4.933 2.847 8.483 6.399 11.332 11.33L40.089 53.706"/>
                <path d="M40.089 53.706V22.752c5.695 0 10.547 1.301 15.479 4.146L40.089 53.706z"/>
                <path fill-rule="evenodd" clip-rule="evenodd" d="M78.592 39.871c-4.263-11.819-14.669-20.889-27.599-23.771 3.316-4.755 8.806-7.886 15.039-7.886 10.131 0 18.34 8.216 18.34 18.346C84.372 31.818 82.135 36.528 78.592 39.871zM43.315 8.903v11.535c17.602 0.718 31.658 15.175 31.658 32.947 0 7.421-2.479 14.245-6.609 19.765l7.648 13.245 -6.356 3.667 -6.545-11.338c-5.729 4.787-13.102 7.675-21.152 7.675 -8.006 0-15.343-2.846-21.057-7.588l-6.722 11.633 -6.354-3.666 7.809-13.521c-4.183-5.532-6.689-12.401-6.689-19.871 0-17.654 13.865-32.033 31.297-32.931V8.903c-1.778-0.637-3.07-2.299-3.07-4.297C37.173 2.063 39.236 0 41.78 0c2.547 0 4.612 2.063 4.612 4.606C46.393 6.604 45.099 8.267 43.315 8.903zM16.28 53.386c0 14.181 11.498 25.68 25.679 25.68 14.18 0 25.681-11.499 25.681-25.68 0-14.182-11.501-25.68-25.681-25.68C27.778 27.706 16.28 39.204 16.28 53.386zM5.786 39.871C2.243 36.528 0 31.818 0 26.561 0 16.431 8.213 8.215 18.345 8.215c6.232 0 11.72 3.131 15.034 7.886C20.452 18.982 10.052 28.052 5.786 39.871z"/>
            </g>
            <!-- // 3. alarm clock 10min icon -->
            
            <!-- 4. alarm clock 15min icon -->
            <g id="alarmClock_i15">
                <!-- viewBox="135.431 0 84.372 90.445" -->
                <path d="M177.01 53.707l28.184-16.271c2.992 5.183 4.359 10.287 4.359 16.271H177.01z"/>
                <path d="M177.01 53.707l16.271-28.182c5.184 2.992 8.92 6.729 11.911 11.911L177.01 53.707z"/>
                <path d="M177.01 53.707V21.165c5.986 0 11.088 1.367 16.271 4.359L177.01 53.707z"/>
                <path d="M214.023 39.871c-4.265-11.819-14.669-20.889-27.601-23.771 3.316-4.756 8.808-7.887 15.041-7.887 10.129 0 18.34 8.217 18.34 18.347C219.803 31.818 217.564 36.528 214.023 39.871zM178.747 8.903v11.535c17.602 0.718 31.656 15.175 31.656 32.947 0 7.421-2.479 14.244-6.607 19.765l7.647 13.246 -6.356 3.666 -6.543-11.338c-5.73 4.786-13.104 7.676-21.152 7.676 -8.006 0-15.344-2.846-21.057-7.588l-6.723 11.633 -6.354-3.666 7.809-13.521c-4.184-5.532-6.689-12.401-6.689-19.87 0-17.655 13.865-32.034 31.297-32.932V8.903c-1.777-0.637-3.07-2.299-3.07-4.297 0-2.543 2.064-4.606 4.607-4.606 2.547 0 4.613 2.063 4.613 4.606C181.825 6.604 180.532 8.267 178.747 8.903zM151.711 53.385c0 14.181 11.498 25.681 25.679 25.681 14.18 0 25.68-11.5 25.68-25.681 0-14.182-11.5-25.68-25.68-25.68C163.209 27.706 151.711 39.204 151.711 53.385zM141.217 39.871c-3.545-3.343-5.786-8.053-5.786-13.311 0-10.13 8.213-18.347 18.344-18.347 6.231 0 11.722 3.131 15.035 7.887C155.881 18.982 145.482 28.052 141.217 39.871z"/>
            </g>
            <!-- // 4. alarm clock 15min icon -->
            
            <!-- 5. alarm clock 30min icon -->
            <g id="alarmClock_i30">
                <!-- viewBox="259.542 0.348 84.371 90.445" -->
                <path d="M301.726 21.512c17.974 0 32.542 14.568 32.542 32.542 0 17.973-14.568 32.543-32.542 32.543V21.512z"/>
                <path d="M338.131 40.219c-4.262-11.817-14.668-20.888-27.598-23.771 3.316-4.755 8.805-7.885 15.041-7.885 10.129 0 18.338 8.215 18.338 18.346C343.915 32.166 341.676 36.877 338.131 40.219zM302.856 9.252v11.534c17.602 0.718 31.658 15.175 31.658 32.947 0 7.422-2.479 14.246-6.609 19.766l7.646 13.244 -6.354 3.668 -6.545-11.338c-5.73 4.787-13.102 7.676-21.152 7.676 -8.006 0-15.344-2.846-21.057-7.588l-6.722 11.633 -6.353-3.666 7.809-13.522c-4.186-5.531-6.69-12.4-6.69-19.871 0-17.653 13.864-32.032 31.298-32.929V9.252c-1.779-0.637-3.07-2.3-3.07-4.297 0-2.543 2.062-4.606 4.606-4.606 2.548 0 4.611 2.063 4.611 4.606C305.933 6.952 304.64 8.615 302.856 9.252zM275.822 53.733c0 14.182 11.497 25.68 25.679 25.68 14.178 0 25.682-11.498 25.682-25.68 0-14.181-11.504-25.678-25.682-25.678C287.319 28.055 275.822 39.552 275.822 53.733zM265.329 40.219c-3.543-3.342-5.787-8.053-5.787-13.31 0-10.131 8.213-18.346 18.346-18.346 6.23 0 11.719 3.13 15.033 7.885C279.993 19.331 269.592 28.4 265.329 40.219z"/>
            </g>
            <!-- // 5. alarm clock 30min icon -->
            
            <!-- 6. alarm clock 45min icon -->
            <g id="alarmClock_i45">
                <!-- viewBox="376.59 -0.001 84.371 90.446" -->
                <path d="M386.235 53.705c0 17.973 14.568 32.543 32.539 32.543 17.975 0 32.545-14.57 32.545-32.543 0-17.972-14.57-32.542-32.545-32.542v32.42L386.235 53.705z"/>
                <path d="M455.182 39.87c-4.264-11.818-14.668-20.888-27.598-23.771 3.314-4.756 8.803-7.886 15.037-7.886 10.131 0 18.34 8.216 18.34 18.347C460.961 31.817 458.723 36.528 455.182 39.87zM419.907 8.903v11.534c17.602 0.718 31.656 15.175 31.656 32.946 0 7.423-2.479 14.246-6.609 19.767l7.648 13.244 -6.355 3.668 -6.545-11.338C433.973 83.51 426.6 86.4 418.549 86.4c-8.006 0-15.342-2.846-21.059-7.588l-6.719 11.633 -6.354-3.666 7.809-13.523c-4.184-5.53-6.691-12.399-6.691-19.871 0-17.652 13.865-32.031 31.297-32.929V8.903c-1.777-0.637-3.068-2.3-3.068-4.297 0-2.543 2.064-4.607 4.607-4.607 2.547 0 4.611 2.064 4.611 4.607C422.983 6.604 421.69 8.267 419.907 8.903zM392.87 53.384c0 14.183 11.498 25.681 25.68 25.681s25.682-11.498 25.682-25.681c0-14.18-11.5-25.678-25.682-25.678S392.87 39.204 392.87 53.384zM382.377 39.87c-3.545-3.342-5.787-8.053-5.787-13.31 0-10.131 8.213-18.347 18.346-18.347 6.23 0 11.719 3.13 15.033 7.886C397.04 18.982 386.639 28.052 382.377 39.87z"/>
            </g>
            <!-- // 6. alarm clock 45min icon -->
            
            <!-- 7. alarm clock 1hr icon -->
            <g id="alarmClock_i1">
                <!-- viewBox="496.684 0.348 84.373 90.445" -->
                <circle cx="538.872" cy="54.052" r="32.542"/>
                <path d="M575.278 40.219c-4.264-11.817-14.668-20.888-27.6-23.771 3.316-4.755 8.807-7.885 15.041-7.885 10.127 0 18.338 8.215 18.338 18.346C581.057 32.166 578.821 36.877 575.278 40.219zM540 9.252v11.534c17.602 0.718 31.658 15.175 31.658 32.947 0 7.422-2.48 14.246-6.611 19.766l7.648 13.244 -6.355 3.668 -6.545-11.338c-5.727 4.787-13.1 7.676-21.152 7.676 -8.004 0-15.342-2.846-21.057-7.588l-6.721 11.633 -6.355-3.666 7.813-13.522c-4.184-5.531-6.691-12.4-6.691-19.871 0-17.653 13.865-32.032 31.297-32.929V9.252c-1.777-0.637-3.068-2.3-3.068-4.297 0-2.543 2.063-4.606 4.607-4.606s4.609 2.063 4.609 4.606C543.077 6.952 541.786 8.615 540 9.252zM512.965 53.733c0 14.182 11.496 25.68 25.678 25.68s25.682-11.498 25.682-25.68c0-14.181-11.5-25.678-25.682-25.678S512.965 39.552 512.965 53.733zM502.471 40.219c-3.543-3.342-5.787-8.053-5.787-13.31 0-10.131 8.213-18.346 18.346-18.346 6.232 0 11.721 3.13 15.033 7.885C517.137 19.331 506.737 28.4 502.471 40.219z"/>
            </g>
            <!-- // 7. alarm clock 1hr icon -->
            
            <!-- 8. racism icon  -->
            <g id="racism_icon">
                <!-- viewBox="1575.218 -0.859 81.534 90.274" -->
                <path d="M1586.327 34.703l1.397-9.628h-4.41v-4.951h5.22l0.859-6.079h-4.52v-4.95h5.273l1.397-9.362h4.735l-1.346 9.362h4.949l1.347-9.362h4.786l-1.344 9.362h4.304v4.95h-5.11l-0.807 6.079h4.41v4.951h-5.272l-1.344 9.628h-4.843l1.399-9.628h-4.896l-1.347 9.628H1586.327zM1598.27 20.124l0.807-6.079h-4.896l-0.859 6.079H1598.27z"/>
                <path d="M1631.575 9.526c0 7.316-4.627 11.188-9.686 11.188 -5.324 0-9.521-3.98-9.521-10.6 0-6.239 3.82-10.974 9.844-10.974C1628.184-0.859 1631.575 3.552 1631.575 9.526zM1618.446 9.955c-0.054 3.659 1.238 6.297 3.605 6.297 2.313 0 3.443-2.369 3.443-6.351 0-3.55-0.97-6.296-3.55-6.296C1619.522 3.605 1618.446 6.405 1618.446 9.955zM1622.265 35.294l20.122-36.099h4.357l-20.066 36.099H1622.265zM1656.752 24.051c0 7.263-4.629 11.137-9.686 11.137 -5.272 0-9.469-3.979-9.469-10.546 0-6.24 3.819-10.974 9.792-10.974S1656.752 18.078 1656.752 24.051zM1643.678 24.427c-0.054 3.657 1.238 6.293 3.552 6.293s3.443-2.366 3.443-6.293c0-3.551-0.97-6.295-3.497-6.295C1644.754 18.133 1643.678 20.93 1643.678 24.427z"/>
                <path d="M1600.18 83.122c-0.753-0.806-1.506-1.613-2.366-2.582 -2.369 1.829-5.649 3.173-9.953 3.173 -8.77 0-12.643-5.162-12.643-10.276 0-4.786 2.743-8.229 6.886-10.435v-0.161c-1.56-1.777-2.799-4.413-2.799-7.049 0-4.573 3.659-9.577 10.976-9.577 5.597 0 9.793 3.282 9.793 8.502 0 3.657-2.153 6.832-7.156 9.308l-0.054 0.213c2.098 2.369 4.304 5.004 6.08 6.833 1.45-2.313 2.58-5.649 3.066-8.877h7.316c-0.97 5.543-2.799 10.223-6.026 13.773 2.044 2.367 4.144 4.734 6.403 7.155H1600.18zM1593.994 75.967c-2.206-2.208-5.165-5.597-8.179-8.931 -1.507 1.13-2.851 2.69-2.851 5.057 0 3.12 2.313 5.703 6.134 5.703C1591.141 77.796 1592.917 76.989 1593.994 75.967zM1589.905 51.327c-2.098 0-3.228 1.827-3.228 3.711 0 1.829 0.807 3.442 2.527 5.219 2.637-1.776 3.927-3.227 3.927-5.326 0-1.721-1.021-3.604-3.12-3.604H1589.905z"/>
                <path d="M1630.042 48.958l-5.757 6.887v0.109l8.607-1.722v5.432l-8.663-1.45v0.106l5.813 6.671 -4.736 2.745 -3.119-8.285h-0.107l-3.066 8.285 -4.627-2.745 5.757-6.724 -0.054-0.107 -8.448 1.504v-5.432l8.393 1.722v-0.109l-5.647-6.831 4.787-2.799 2.96 8.339h0.106l3.12-8.339L1630.042 48.958z"/>
                <path d="M1649.517 45.947c-3.013 4.95-5.434 12.157-5.434 21.789 0 9.467 2.421 16.624 5.434 21.68h-5.703c-2.851-4.196-6.133-11.35-6.133-21.68 0.054-10.492 3.282-17.593 6.133-21.789H1649.517z"/>
            </g>
            <!-- // 8. racism icon  -->
            
            <!-- 9. otherOffence_icon  -->
            <g id="otherOffence_icon">
                <!-- viewBox="1696.752 -3.428 122.826 95.657" -->
                <path d="M1743.132 3.077c-4.705-4.337-11.313-6.505-19.817-6.505 -7.769 0-14.173 2.095-19.202 6.281 -5.033 4.188-7.479 12.575-7.355 19.528l0.201 0.39h12.17c0-4.146 1.385-10.103 4.148-12.241 2.763-2.14 6.11-3.212 10.038-3.212 4.53 0 8.011 1.236 10.455 3.697 2.438 2.462 3.662 5.979 3.662 10.557 0 3.841-0.898 7.124-2.716 9.837 -1.814 2.723-4.864 6.606-9.135 11.661 -4.405 3.972-7.127 7.171-8.156 9.584 -1.037 2.42-1.581 6.763-1.628 13.02h12.763c0-3.926 0.249-6.825 0.748-8.677 0.494-1.854 1.902-3.956 4.238-6.283 5.005-4.832 9.033-9.56 12.076-14.179 3.044-4.625 4.568-9.718 4.568-15.288C1750.191 13.477 1747.833 7.423 1743.132 3.077zM1715.667 92.229h13.348V78.756h-13.348V92.229z"/>
                <path d="M1785.054 92.229h13.349V78.756h-13.349V92.229zM1812.519 3.077c-4.705-4.337-11.313-6.505-19.816-6.505 -7.77 0-14.173 2.095-19.203 6.281 -5.032 4.188-7.479 12.575-7.354 19.528l0.2 0.39h12.17c0-4.146 1.386-10.103 4.148-12.241 2.763-2.14 6.111-3.212 10.039-3.212 4.529 0 8.011 1.236 10.455 3.697 2.438 2.462 3.661 5.979 3.661 10.557 0 3.841-0.897 7.124-2.716 9.837 -1.814 2.723-4.863 6.606-9.135 11.661 -4.405 3.972-7.127 7.171-8.155 9.584 -1.038 2.42-1.581 6.763-1.628 13.02h12.762c0-3.926 0.249-6.825 0.748-8.677 0.494-1.854 1.903-3.956 4.238-6.283 5.005-4.832 9.033-9.56 12.077-14.179 3.044-4.625 4.568-9.718 4.568-15.288C1819.579 13.477 1817.22 7.423 1812.519 3.077z"/>
            </g>
            <!-- // 9. otherOffence_icon  -->
            
            <!-- 10. Abuse Threat icon -->
            <g id="abuseThreat_icon">
                <!-- viewBox="616.267 -3.322 89.286 96.7" -->
                <path fill-rule="evenodd" clip-rule="evenodd" d="M666.102 60.022c4.204-4.736 3.693-9.829 1.54-15.023 -1.763-4.248-4.665-7.668-8.221-10.525 -5.355-4.303-11.013-8.13-17.458-10.654 -2.351-0.92-4.762-1.646-7.276-1.934 -0.659-0.077-0.843-0.311-0.823-0.955 0.191-6.335 2.387-11.863 6.87-16.349 6.454-6.457 14.463-8.52 23.327-7.751 6.992 0.607 13.347 3.165 19.278 6.8 4.932 3.024 9.435 6.6 13.308 10.923 3.994 4.455 7.077 9.453 8.295 15.371 1.831 8.895-0.447 16.748-6.854 23.16 -7.074 7.081-15.816 9.52-25.654 8.367C670.308 61.2 668.227 60.749 666.102 60.022z"/>
                <path fill-rule="evenodd" clip-rule="evenodd" d="M679.473 65.572c-1.164 1.658-2.488 3.114-3.817 4.562 -2.662 2.902-5.61 5.465-9.022 7.469 -4.758 2.792-9.888 2.974-15.139 2.095 -0.821-0.137-1.093 0.003-1.232 0.755 -0.125 0.668-0.27 1.345-0.52 1.973 -0.264 0.665 0.039 0.825 0.586 0.959 2.238 0.546 4.509 0.699 6.798 0.524 0.751-0.059 1.082 0.006 0.748 0.88 -1.257 3.29-2.875 6.281-6.303 7.795 -2.451 1.082-5.036 0.889-7.546 0.424 -11.113-2.057-19.781-7.743-25.576-17.565 -0.919-1.561-1.554-3.262-1.956-5.025 -0.729-3.193 0.387-5.975 2.087-8.582 0.706-1.081 1.516-2.097 2.464-3.003 0.367 0.194 0.463 0.576 0.644 0.883 3.535 5.983 8.049 11.145 13.203 15.773 0.386 0.346 0.613 0.388 0.961-0.032 0.651-0.784 1.816-1.487 1.895-2.306 0.072-0.753-1.256-1.361-1.963-2.036 -6.768-6.476-12.222-13.824-15.077-22.869 -1.403-4.447-1.973-8.974-0.933-13.6 1.383-6.155 6.564-9.785 12.851-9.173 4.071 0.395 7.846 1.655 11.458 3.474 5.603 2.818 10.762 6.311 15.279 10.664 3.021 2.912 5.158 6.411 5.897 10.637 0.19 1.084 0.213 2.178 0.044 3.259 -0.469 3.01-2.494 4.808-5.555 5.019 -3.273 0.225-6.252-0.814-9.15-2.145 -3.925-1.799-7.469-4.217-10.832-6.9 -0.648-0.518-0.992-0.471-1.408 0.197 -0.483 0.774-1.577 1.448-1.482 2.212 0.098 0.771 1.281 1.203 2.013 1.748 4.415 3.292 9.038 6.217 14.358 7.845 2.361 0.725 4.773 1.128 7.257 0.816 0.392-0.05 0.743 0.016 1.093 0.162 4.927 2.081 10.069 3.098 15.413 3.113C677.792 65.575 678.573 65.572 679.473 65.572z"/>
            </g>
            <!-- // 10. Abuse Threat icon -->
            
            <!-- 11. cyberBully_icon  -->
            <g id="cyberBully_icon">
                <!-- viewBox="745.754 -4.044 90.47 108.394" -->
                <polygon fill-rule="evenodd" clip-rule="evenodd" points="836.224,7.748 799.554,-4.044 758.934,41.935     792.494,52.727 745.754,104.349 827.449,53.752 796.251,43.72   "/>
            </g>
            <!-- // 11. cyberBully_icon  -->
            
            <!-- 12. Stalking icon  -->
            <g id="stalking_icon">
                <!-- viewBox="880.337 9.391 142.321 80.908" -->
                <path fill-rule="evenodd" clip-rule="evenodd" d="M959.929 65.283c-5.822 0-10.845 0-16.714 0 -0.515 1.239-1.34 3.221-2.16 5.204 -5.092 12.3-16.967 20.107-30.116 19.803 -12.436-0.291-23.68-8.351-28.378-20.339 -4.75-12.124-1.834-25.631 8.204-34.358 8.358-7.27 16.08-15.78 28.414-16.748 2.136-0.166 4.069-3.259 6.044-5.057 6.55-5.965 12.389-5.87 18.811 0.342 2.264 2.188 12.465 2.229 14.731 0.056 6.634-6.361 12.251-6.15 19.421-0.173 3.072 2.566 7.012 4.22 10.756 5.83 14.201 6.098 26.689 14.451 32.036 29.566 5.684 16.064-3.603 33.464-19.567 39.047 -15.861 5.548-32.686-2.044-39.405-17.801C961.22 68.815 960.558 66.922 959.929 65.283zM911.739 80.068c11.856 0.02 21.576-9.524 21.591-21.202 0.017-11.887-9.502-21.515-21.238-21.487 -12.013 0.03-21.358 9.251-21.511 21.223C890.43 70.433 899.909 80.049 911.739 80.068zM1012.415 58.416c-0.127-11.888-9.732-21.202-21.653-20.989 -12.074 0.217-21.009 9.409-21.016 21.626 -0.005 11.736 9.643 21.113 21.622 21.014C1003.135 79.966 1012.54 70.292 1012.415 58.416zM959.952 49.395c-0.453-5.278-3.568-8.363-8.607-8.404 -5.097-0.04-8.291 3.089-8.531 8.402 -0.224 4.932 4.072 9.208 8.887 8.805C956.93 57.759 959.627 54.646 959.952 49.395z"/>
            </g>
            <!-- // 12. Stalking icon  -->
            
            <!-- 13. excessiveContact icon  -->
            <g id="excessiveContact_icon">
                <!-- viewBox="1063.753 4.603 111.65 80.85" -->
                <path fill-rule="evenodd" clip-rule="evenodd" d="M1169.628 85.453c-3.188 0-5.774-2.587-5.774-5.774V10.38c0-3.188 2.587-5.776 5.774-5.776s5.775 2.588 5.775 5.776v69.299C1175.404 82.866 1172.816 85.453 1169.628 85.453zM1140.754 77.754c0 4.252-3.448 7.699-7.701 7.699h-34.649c-4.253 0-7.7-3.447-7.7-7.699V62.511l-15.362-3.418V31.264l84.79-18.682V77.97l-19.377-4.316V77.754zM1136.904 72.798l-42.35-9.43v14.386c0 2.124 1.723 3.849 3.85 3.849h34.649c2.128 0 3.851-1.725 3.851-3.849V72.798zM1067.604 62.353c-2.128 0-3.851-1.727-3.851-3.851V31.554c0-2.129 1.723-3.852 3.851-3.852s3.851 1.723 3.851 3.852v26.948C1071.455 60.627 1069.732 62.353 1067.604 62.353z"/>
            </g>
            <!-- // 13. excessiveContact icon  -->
            
            <!-- 14. Junk Mail icon  -->
<!--            Icon has been transferred-->
            <!-- // 14. Junk Mail icon  -->
            
            <!-- 15. crime icon  -->
            <g id="crime_icon">
                <!-- viewBox="1304.487 23.873 154.184 43.967" -->
                <path d="M1421.21 23.873c-16.323 0-30.2 6.129-35.333 14.678 -0.693-0.063-1.4-0.104-2.127-0.104 -2.185 0-4.239 0.301-6.056 0.823 -4.769-8.923-18.97-15.396-35.748-15.396 -20.688 0-37.46 9.842-37.46 21.983s16.771 21.983 37.46 21.983c16.778 0 30.979-6.473 35.748-15.397 1.816 0.524 3.871 0.825 6.056 0.825 0.727 0 1.434-0.042 2.127-0.105 5.133 8.549 19.01 14.678 35.333 14.678 20.688 0 37.46-9.842 37.46-21.983S1441.899 23.873 1421.21 23.873zM1341.947 55.213c-8.806 0-15.943-4.188-15.943-9.356s7.138-9.356 15.943-9.356 15.942 4.188 15.942 9.356S1350.752 55.213 1341.947 55.213zM1421.21 55.213c-8.806 0-15.943-4.188-15.943-9.356s7.138-9.356 15.943-9.356 15.942 4.188 15.942 9.356S1430.016 55.213 1421.21 55.213z"/>
            </g>
            <!-- // 15. crime icon  -->

            <!-- 16. fraud icon -->
            <g id="fraud_icon">
                <!-- viewBox="1508.264 -2.88 52.929 96.837" -->
                <path d="M1528.44 93.957V82.683c-7.952-0.355-15.666-2.611-20.176-5.104l3.561-13.884c4.984 2.729 11.986 5.222 19.699 5.222 6.884 0 11.512-2.729 11.512-7.358 0-4.509-3.798-7.358-12.698-10.323 -12.698-4.272-21.361-10.206-21.361-21.717 0-10.564 7.358-18.753 20.057-21.126V-2.88h11.63V7.562c7.833 0.236 13.172 2.018 17.326 3.916l-3.561 13.409c-2.967-1.423-8.544-4.152-17.088-4.152 -7.715 0-10.206 3.442-10.206 6.765 0 3.797 4.153 6.407 14.359 10.087 14.122 4.984 19.699 11.511 19.699 22.311 0 10.563-7.358 19.581-21.005 21.836v12.224H1528.44z"/>
            </g>
            <!-- // 16. fraud icon  -->
            
            <!-- 17. chat icon  -->
            <g id="chat_icon">
                <!-- viewBox="1704.975 139.677 104.975 89.603" -->
                <path fill-rule="evenodd" clip-rule="evenodd" d="M1757.459 139.677c-28.982 0-52.484 17.49-52.484 39.064 0 12.958 8.484 24.447 21.545 31.557 -0.027 0.111-10.4 18.981-10.4 18.981s31.67-12.079 31.754-12.132c3.109 0.426 6.313 0.65 9.586 0.65 28.986 0 52.49-17.49 52.49-39.057C1809.95 157.168 1786.446 139.677 1757.459 139.677zM1722.137 186.112c-4.727 0-8.561-3.832-8.561-8.558 0-4.727 3.834-8.559 8.561-8.559s8.555 3.832 8.555 8.559C1730.692 182.28 1726.864 186.112 1722.137 186.112zM1756.243 186.112c-4.727 0-8.559-3.832-8.559-8.558 0-4.727 3.832-8.559 8.559-8.559 4.729 0 8.561 3.832 8.561 8.559C1764.803 182.28 1760.971 186.112 1756.243 186.112zM1790.352 186.112c-4.727 0-8.561-3.832-8.561-8.558 0-4.727 3.834-8.559 8.561-8.559 4.729 0 8.557 3.832 8.557 8.559C1798.909 182.28 1795.081 186.112 1790.352 186.112z"/>
            </g>
            <!-- // 17. chat icon  -->
            
            <!-- 18. email icon  -->
            <g id="email_icon">
                <!-- viewBox="1583.446 139.14 81.529 92.141" -->
                <polygon points="1650.797,163.974 1650.797,191.426 1664.522,177.701   "/>
                <path d="M1627.135 140.312c-1.563-1.563-4.287-1.563-5.848 0l-5.898 5.896h17.643L1627.135 140.312z"/>
                <polygon points="1597.627,163.969 1585.579,176.013 1583.758,177.836 1597.627,191.705   "/>
                <polygon points="1606.465,206.086 1606.731,205.82 1583.446,182.537 1583.446,183.067 1583.446,183.76     1583.446,185.383 1583.446,229.096 1606.463,206.082   "/>
                <path d="M1659.438 228.574h-0.008l-32.295-32.294c-1.563-1.563-4.287-1.563-5.848 0l-33.102 33.095h-0.006l-1.906 1.906h75.869l-0.746-0.748L1659.438 228.574z"/>
                <polygon points="1641.549,205.683 1641.952,206.086 1641.958,206.08 1664.975,229.097 1664.975,183.76     1664.975,183.063 1664.975,182.26   "/>
                <path d="M1618.782 193.771c1.449-1.449 3.377-2.248 5.43-2.248 2.051 0 3.979 0.799 5.428 2.248l1.297 1.297 8.107 8.11 8.209-8.208v-34.54l-10.678-10.677h-35.402v45.496l8.064 8.066L1618.782 193.771zM1611.805 160.386h24.813v3.545h-24.813V160.386zM1611.805 171.021h17.723v3.545h-17.723V171.021zM1611.805 181.655h24.813v3.546h-24.813V181.655z"/>
            </g>
            <!-- // 18. email icon  -->
            
            <!-- 19. myLinkstar icon  -->
            <g id="myLinkstar_icon">
                <!-- viewBox="1401.53 132.865 104.975 106.365" -->
                <path d="M1417.676 183.849c0 0-20.624-13.85-7.696-14.275 11.584-0.376 28.271 5.429 49.718 12.52 21.44 7.086 72.937 25.703 22.056 23.242 0 0 38.209 6.289 19.68-10.088 -18.525-16.381-42.465-21.64-56.146-25.299C1425.179 164.566 1376.289 159.761 1417.676 183.849z"/>
                <path d="M1426.789 210.53c0 0-24.25 4.985-15.407-4.572 7.934-8.571 23.781-16.427 43.896-26.78 20.098-10.348 69.505-34.075 31.816 0.641 0 0 31.404-22.93 6.875-21.236 -24.533 1.688-45.129 15.121-57.357 22.338C1418.64 191.521 1380.71 223.153 1426.789 210.53z"/>
                <path d="M1451.71 222.87c0 0-13.668 20.897-14.084 7.797 -0.378-11.737 5.354-28.653 12.351-50.378 6.999-21.725 25.371-73.896 22.942-22.346 0 0 6.208-38.715-9.961-19.939 -16.163 18.772-21.354 43.026-24.969 56.885C1432.676 215.265 1427.933 264.808 1451.71 222.87z"/>
                <path d="M1429.71 158.457c0 0-4.915-24.568 4.518-15.604 8.457 8.03 16.211 24.098 26.428 44.473 10.211 20.372 33.635 70.433-0.624 32.239 0 0 22.628 31.816 20.952 6.961 -1.671-24.855-14.93-45.721-22.047-58.114C1448.477 150.197 1417.257 111.771 1429.71 158.457z"/>
            </g>
            <!-- 19. myLinkstar icon -->
            
            <!-- 20. fastBlock icon -->
            <g id="fastBlock_icon">
                <!-- viewBox="0 0 112.148 120.457" -->
                <path d="M81.767 96.917l13.975-18.809 16.406-15.677c0 0-5.476-6.518-12.227-6.518 -3.039 0-5.824 0.868-8.354 2.607 -2.53 1.732-4.837 4.338-6.911 7.81 -2.9 1.019-5.162 1.987-6.789 2.907 -0.357-3.617-0.791-6.294-1.299-8.027l9.43-36.576c2.227-8.818 2.76-13.276-2.551-15.635 -5.311-2.363-10.74 4.149-13.533 12.451l-8.938 28.248 0.273-36.323C61.249 4.459 58.433 0 52.804 0c-5.682 0-8.522 3.955-8.522 11.852v36.314l-9.14-31.81c-2.268-5.629-6.257-11.169-11.567-9.398 -5.312 1.771-5.062 10.51-3.589 16.102l8.141 31.012L14.992 32.379c-4.016-6.962-10.948-8.311-12.516-6.686 -2.499 2.593-4.167 8.107 0.364 16.021L17.33 66.944l12.935 44.809v8.704h37.77v-11.23C72.419 106.22 76.21 102.119 81.767 96.917L81.767 96.917z"/>
            </g>
            <!-- // 20. fastBlock icon -->
            
            <!-- 21. add icon  -->
            <g id="add_icon">
                <!-- viewBox="0 0 102.66 102.66" -->
                <polygon points="102.661,39.499 63.161,39.499 63.161,0 39.499,0 39.499,39.499 0,39.499 0,63.161 39.499,63.161   39.499,102.66 63.161,102.66 63.161,63.161 102.661,63.161 "/>
            </g>
            <!-- 21. add icon  -->
            
            <!-- 22. newReport icon  -->
            <g id="newReport_icon">
                <!-- viewBox="0 0 108.021 106.609" -->
                <path fill-rule="evenodd" clip-rule="evenodd" d="M108.021 17.785L90.237 0l-3.556 3.561 17.782 17.781L108.021 17.785zM95.757 96.564l-85.634 0.034 0.019-85.636 59.958-0.02 9.389-9.956H5.029C2.251 0.987 0 3.236 0 6.017v95.563c0 2.775 2.251 5.03 5.029 5.03h95.563c2.777 0 5.03-2.255 5.03-5.03V30.87l-10.134 9.941L95.757 96.564z"/>
                <polygon fill-rule="evenodd" clip-rule="evenodd" points="79.146,44.888 63.582,44.888 63.582,29.323    45.762,29.323 45.762,44.888 30.197,44.888 30.197,62.708 45.762,62.708 45.762,78.272 63.582,78.272 63.582,62.708 79.146,62.708"/>
            </g>
            <!-- // 22. newReport icon -->
            
            <!-- 23. draftReport icon -->
            <g id="draftReport_icon">
                <!-- viewBox="0 0 118.08 116.668" -->
                <path fill-rule="evenodd" clip-rule="evenodd" d="M34.35 65.95l-0.001 0.004 2.544-2.543 17.78 17.78L104.465 31.4 86.682 13.62l3.349-3.354L34.35 65.95zM115.133 6.503l-3.556-3.556c-3.927-3.93-10.298-3.93-14.228 0l-7.112 7.112 17.783 17.785 7.112-7.112C119.062 16.803 119.062 10.433 115.133 6.503zM22.665 95.926l28.03-11.601L33.78 67.41 22.665 95.926zM95.756 106.624l-85.633 0.034 0.02-85.637 59.958-0.02 9.389-9.955H5.029C2.252 11.047 0 13.296 0 16.076v95.563c0 2.775 2.252 5.029 5.029 5.029h95.563c2.777 0 5.029-2.254 5.029-5.029V40.93l-10.133 9.941L95.756 106.624z"/>
            </g>
            <!-- // 23. draftReport icon  -->
            
            <!-- 24. historyReport icon -->
            <g id="historyReport_icon">
                <!-- viewBox="0 0 71.643 101.81" -->
                <path fill-rule="evenodd" clip-rule="evenodd" d="M69.758 94.269c1.038 0 1.885 0.844 1.885 1.886s0 5.655 0 5.655H0c0 0 0-4.613 0-5.655s0.847-1.886 1.885-1.886h6.297C8.49 69.162 24.893 61.072 24.893 50.924c0-10.2-16.7-10.878-16.858-43.382H1.885C0.847 7.542 0 6.698 0 5.656S0 0 0 0h71.643c0 0 0 4.614 0 5.656s-0.847 1.886-1.885 1.886h-5.771C63.829 40.046 47.13 40.724 47.13 50.924c0 10.148 16.401 18.238 16.714 43.345H69.758zM41.897 50.924c0-10.241 16.702-10.878 16.857-43.382H13.271c0.155 32.504 16.858 33.141 16.858 43.382 0 9.847-16.405 18.146-16.719 43.345h2.861c0.67-2.235 2.898-4.923 6.75-6.916l5-2.552c3.146-1.623 5.03-2.721 5.656-3.288 0.626-0.566 1.334-1.833 2.129-3.8 0.832 1.967 1.547 3.233 2.15 3.8 0.604 0.567 2.467 1.665 5.598 3.288l4.979 2.552c3.825 1.993 6.046 4.681 6.709 6.916h3.369C58.299 69.07 41.897 60.771 41.897 50.924zM37.972 45.39c-0.453 0.891-0.832 2.58-1.134 5.077 -0.074 0.755-0.243 1.89-0.508 3.402 -0.266-1.513-0.436-2.647-0.509-3.402 -0.306-2.497-0.685-4.187-1.142-5.077 -0.457-0.888-1.742-2.482-3.866-4.791l-4.722-5.159c-3.221-3.477-5.287-5.974-6.197-7.482 5.594 3.564 11.059 5.347 16.391 5.347s10.814-1.782 16.449-5.347c-0.943 1.509-3.016 4.006-6.22 7.482l-4.698 5.159C39.706 42.907 38.421 44.502 37.972 45.39z"/>
            </g>
            <!-- // 24. historyReport icon -->
            
            <!-- 25. alert icon  -->
            <g id="alert_icon">
                <!-- viewBox="0 0 19.209 26.001" -->
                <path fill-rule="evenodd" clip-rule="evenodd" d="M19.179 21.067v1.587H0.03v-1.587c0 0-0.41-0.877 1.813-2.981 2.221-2.104 1.93-7.539 1.93-11.223 0-3.681 5.17-3.759 5.17-3.759H9.12c0 0 0-0.025 0-0.6 0-0.367-1.234-1.699-1.234-1.699L7.866 0h3.486l-0.023 0.836c0 0-1.338 1.331-1.338 1.724 0 0.379 0 0.505 0 0.545h0.277c0 0 5.17 0.078 5.17 3.759 0 3.684-0.293 9.119 1.93 11.223C19.589 20.19 19.179 21.067 19.179 21.067zM11.788 23.494c0 1.204-0.975 2.507-2.178 2.507s-2.18-1.303-2.18-2.507C7.431 23.521 11.788 23.466 11.788 23.494z"/>
            </g>
            <!-- // 25. alert icon  -->
            
            <!-- 26. sound icon -->
            <g id="sound_icon">
                <!-- viewBox="0 0 16.149 26.808" -->
                <path d="M10.335 6.751c3.564 1.669 5.039 3.26 3.131 6.652 -0.369 0.654-0.196 1.227 0.31 1.574 0.634 0.437 0.974-0.223 1.286-0.625 1.873-2.406 1.279-6.184-1.402-7.836 -1.741-1.074-3.134-2.241-3.349-4.4 -0.056-0.566-0.44-0.73-0.941-0.719C8.832 1.409 8.552 1.719 8.503 2.229 8.462 2.672 8.45 3.12 8.449 3.565c-0.011 4.959-0.045 9.919-0.004 14.878 0.01 1.172-0.21 1.477-1.425 1.065 -1.998-0.676-3.958-0.309-5.637 0.96 -1.93 1.459-1.823 3.929 0.201 5.239 2.131 1.378 4.383 1.435 6.653 0.318 2.056-1.01 2.134-2.865 2.112-4.831C10.302 16.438 10.335 11.681 10.335 6.751z"/>
            </g>
            <!-- // 26. sound icon -->
            
            <!-- 27. face icon  -->
            <g id="face_icon">
                <!-- viewBox="0 0 39.279 46.142" -->
                <path d="M34.183 23.119c0-0.108-0.094-0.222-0.118-0.343 -0.16-0.838-0.816-1.648-0.166-2.55 0.037-0.042 0.02-0.113 0.025-0.166 -6.41-2.904-22.028-2.915-28.502 0.008 0.03 0.094 0.03 0.223 0.094 0.29 0.38 0.354 0.238 0.751 0.131 1.166 -0.194 0.758-0.361 1.52-0.557 2.27 -0.028 0.091-0.129 0.174-0.213 0.216 -2.645 1.319-3.485 5.284-2.658 7.433 0.825 2.128 2.392 3.572 4.41 4.557 0.289 0.14 0.444 0.32 0.587 0.623 0.408 0.928 0.8 1.881 1.331 2.727 1.733 2.712 4.201 4.556 7.133 5.805 1.424 0.61 2.898 1.107 4.49 0.965 1.515-0.125 2.93-0.637 4.277-1.309 3.633-1.792 6.405-4.409 7.776-8.328 0.06-0.139 0.214-0.282 0.368-0.347 1.687-0.693 2.935-1.87 3.941-3.372 1.811-2.707 0.686-6.841-1.521-8.364C34.52 24.069 34.171 23.741 34.183 23.119zM33.881 30.884c-0.727 1.226-1.698 2.165-3.189 2.414 -0.745 0.12-1.154 0.653-1.313 1.343 -0.457 1.961-1.455 3.602-2.919 4.944 -1.812 1.667-3.896 2.832-6.339 3.3 -0.839 0.162-1.627-0.124-2.396-0.396 -2.649-0.958-4.883-2.486-6.46-4.865 -0.593-0.879-1.008-1.841-1.251-2.871 -0.201-0.852-0.715-1.301-1.573-1.542 -1.522-0.445-2.64-1.444-3.19-2.949 -0.289-0.77-0.064-1.573 0.26-2.365 0.094 0.057 0.166 0.087 0.219 0.129 0.529 0.373 1.086 0.444 1.669 0.166 0.659-0.306 0.894-0.868 0.936-1.543 0.072-1.049 0.142-2.097 0.214-3.138 0.01-0.125 0.052-0.261 0.088-0.449 7.367 4.401 14.719 4.401 22.128-0.026 0.082 0.754 0.178 1.44 0.229 2.127 0.043 0.544 0.031 1.091 0.056 1.638 0.089 1.398 1.578 1.965 2.565 1.244 0.056-0.034 0.107-0.061 0.214-0.144C34.213 28.916 34.461 29.908 33.881 30.884z"/>
                <path d="M38.551 8.809c-1.278-0.135-2.574-0.177-3.841-0.399 -3.385-0.611-6.303-2.195-8.901-4.428 -1.182-1.019-2.361-2.059-3.603-2.994 -1.812-1.366-3.362-1.31-5.086 0.136 -0.862 0.724-1.649 1.527-2.444 2.318 -2.643 2.622-5.75 4.368-9.447 4.949C3.705 8.628 2.15 8.681 0.611 8.817 0.05 8.866-0.111 9.047 0.072 9.579c0.16 0.469 0.379 0.924 0.608 1.361 1.091 2.067 2.567 3.953 2.878 6.397 0.146-0.023 0.266-0.034 0.385-0.064 4.338-1.033 8.758-1.489 13.207-1.592 2.361-0.063 4.717-0.06 7.066 0.095 2.256 0.146 4.498 0.479 6.735 0.799 1.022 0.147 2.03 0.469 2.994 0.71 0.225-0.585 0.349-1.178 0.65-1.675 0.592-0.962 1.257-1.897 1.937-2.799 0.799-1.033 1.662-2.025 2.467-3.04 0.16-0.215 0.178-0.528 0.279-0.796C39.035 8.922 38.793 8.836 38.551 8.809zM23.211 10.793c-0.039 0.693-0.58 1.207-1.095 1.629 -0.68 0.544-1.419 1.015-2.166 1.498C19.827 14 19.56 14 19.417 13.924c-0.993-0.528-1.917-1.158-2.668-2.007 -0.432-0.482-0.675-1.022-0.663-1.697 0.029-1.083 0.012-2.173 0.012-3.293 2.426 0 4.764 0 7.143 0C23.24 8.237 23.293 9.515 23.211 10.793z"/>
                <path d="M15.223 28.599c0 0.807-0.65 1.456-1.457 1.456l0 0c-0.805 0-1.455-0.649-1.455-1.456l0 0c0-0.804 0.65-1.456 1.455-1.456l0 0C14.572 27.143 15.223 27.795 15.223 28.599L15.223 28.599z"/>
                <path d="M26.975 28.599c0 0.807-0.652 1.456-1.457 1.456l0 0c-0.803 0-1.455-0.649-1.455-1.456l0 0c0-0.804 0.652-1.456 1.455-1.456l0 0C26.322 27.143 26.975 27.795 26.975 28.599L26.975 28.599z"/>
            </g>
            <!-- // 27. face icon  -->
            
            <!-- 28. report icon  -->
            <g id="report_icon">
                <!-- viewBox="0 0 21.764 29.988" -->
                <path fill-rule="evenodd" clip-rule="evenodd" d="M18.852 12.623c0 0.662-0.537 1.199-1.199 1.199H4.111c-0.663 0-1.199-0.537-1.199-1.199l0 0c0-0.662 0.536-1.199 1.199-1.199h13.541C18.314 11.424 18.852 11.961 18.852 12.623L18.852 12.623z"/>
                <path fill-rule="evenodd" clip-rule="evenodd" d="M18.852 16.957c0 0.662-0.537 1.199-1.199 1.199H4.111c-0.663 0-1.199-0.537-1.199-1.199l0 0c0-0.662 0.536-1.199 1.199-1.199h13.541C18.314 15.758 18.852 16.295 18.852 16.957L18.852 16.957z"/>
                <path fill-rule="evenodd" clip-rule="evenodd" d="M18.852 21.291c0 0.662-0.537 1.199-1.199 1.199H4.111c-0.663 0-1.199-0.537-1.199-1.199l0 0c0-0.662 0.536-1.199 1.199-1.199h13.541C18.314 20.092 18.852 20.629 18.852 21.291L18.852 21.291z"/>
                <path fill-rule="evenodd" clip-rule="evenodd" d="M16.461 8.287c0 0.664-0.536 1.201-1.199 1.201H6.501c-0.662 0-1.198-0.537-1.198-1.201l0 0c0-0.662 0.536-1.197 1.198-1.197h8.761C15.925 7.09 16.461 7.625 16.461 8.287L16.461 8.287z"/>
                <path d="M20.026 29.988H1.737C0.779 29.988 0 29.209 0 28.252V1.736C0 0.779 0.779 0 1.737 0h18.289c0.958 0 1.737 0.779 1.737 1.736v26.516C21.764 29.209 20.984 29.988 20.026 29.988zM1.737 1.078c-0.363 0-0.659 0.295-0.659 0.658v26.516c0 0.363 0.296 0.658 0.659 0.658h18.289c0.363 0 0.659-0.295 0.659-0.658V1.736c0-0.363-0.296-0.658-0.659-0.658H1.737z"/>
            </g>
            <!-- // 28. report icon  -->
            
            <!-- 29. full calender icon  -->
            <g id="full_calender_icon">
                <!-- viewBox="0 0 26.104 29.114" -->
                <path fill-rule="evenodd" clip-rule="evenodd" d="M24.097 29.114H2.007C0.899 29.114 0 28.216 0 27.106V5.02c0-1.11 0.899-2.008 2.007-2.008h2.009v1.004c0 1.662 1.349 3.012 3.013 3.012s3.012-1.35 3.012-3.012V3.012h6.023v1.004c0 1.662 1.348 3.012 3.012 3.012 1.665 0 3.013-1.35 3.013-3.012V3.012h2.009c1.107 0 2.007 0.897 2.007 2.008v22.087C26.104 28.216 25.204 29.114 24.097 29.114zM24.097 10.038H2.007v17.068h22.09V10.038zM7.028 15.059H4.016v-3.012h3.013V15.059zM7.028 20.079H4.016v-3.012h3.013V20.079zM7.028 25.099H4.016v-3.012h3.013V25.099zM12.048 15.059H9.036v-3.012h3.012V15.059zM12.048 20.079H9.036v-3.012h3.012V20.079zM12.048 25.099H9.036v-3.012h3.012V25.099zM17.067 15.059h-3.012v-3.012h3.012V15.059zM17.067 20.079h-3.012v-3.012h3.012V20.079zM17.067 25.099h-3.012v-3.012h3.012V25.099zM22.088 15.059h-3.013v-3.012h3.013V15.059zM22.088 20.079h-3.013v-3.012h3.013V20.079zM22.088 25.099h-3.013v-3.012h3.013V25.099zM19.045 6.023c-1.092 0-1.978-0.886-1.978-1.977V1.976C17.067 0.883 17.953 0 19.045 0c1.091 0 1.977 0.883 1.977 1.976v2.071C21.021 5.138 20.136 6.023 19.045 6.023zM6.997 6.023c-1.092 0-1.977-0.886-1.977-1.977V1.976C5.021 0.883 5.905 0 6.997 0c1.091 0 1.976 0.883 1.976 1.976v2.071C8.973 5.138 8.088 6.023 6.997 6.023z"/>
            </g>
            <!-- // 29. full calender icon  -->
            
            <!-- 30. time out icon  -->
            <g id="time_out_icon">
                <!-- viewBox="0 0 29.203 29.203" -->
                <path d="M15.202 17.393c-0.477 0.477-1.247 0.477-1.722 0.004l0 0c-0.476-0.477-0.476-1.248 0-1.725l6.224-6.224c0.477-0.475 1.248-0.475 1.722 0l0 0c0.476 0.475 0.476 1.246 0 1.721L15.202 17.393z"/>
                <path d="M15.109 15.672c0.477 0.477 0.477 1.246 0 1.721l0 0c-0.474 0.477-1.245 0.477-1.721 0l-3.466-3.465c-0.476-0.476-0.476-1.247 0-1.723l0 0c0.474-0.475 1.245-0.475 1.722 0.001L15.109 15.672z"/>
                <path d="M14.602 0C6.538 0 0 6.537 0 14.602c0 8.063 6.538 14.602 14.602 14.602 8.064 0 14.602-6.538 14.602-14.602C29.203 6.537 22.666 0 14.602 0zM14.602 25.625c-6.088 0-11.022-4.936-11.022-11.023S8.514 3.578 14.602 3.578s11.023 4.936 11.023 11.023S20.689 25.625 14.602 25.625z"/>
            </g>
            <!-- // 30. time out icon  -->
            
            <!-- 31. alert wave icon -->
            <g id="alert_wave_icon">
                <!-- viewBox="0 0 38.179 30.991" -->
                <path d="M13.131 25.854c0.012 0.026 0.018 0.057 0.034 0.078 0.009 0.012 0.038 0.008 0.058 0.01 -0.035-0.024-0.069-0.049-0.104-0.074 0.082-0.367-0.138-0.647-0.273-0.951 -2.729-6.085-2.736-12.191-0.162-18.324 0.16-0.38 0.457-0.744 0.311-1.237C7.759 8.232 5.613 15.3 8.316 20.736 9.398 22.914 10.789 24.842 13.131 25.854zM8.195 0C2.721 3.433-1.252 11.245 0.363 19.478c1.017 5.186 5.383 10.879 7.719 11.396C2.044 20.676 2.17 10.458 8.195 0zM30.043 30.991c4.131-0.834 8.502-9.982 8.111-17.058 -0.295-5.347-5.148-13.479-8.07-13.719C36.104 10.452 36.173 20.694 30.043 30.991zM19.077 20.419c2.71 0.006 4.839-2.121 4.856-4.853 0.017-2.665-2.172-4.803-4.914-4.798 -2.555 0.006-4.725 2.177-4.74 4.74C14.266 18.232 16.396 20.414 19.077 20.419zM24.847 5.101c3.382 6.857 3.319 13.59 0.522 20.435 3.232-1.65 4.884-4.451 5.504-7.817C31.818 12.596 29.459 7.742 24.847 5.101z"/>
            </g>
            <!-- // 31. alert wave icon -->
            
            <!-- 32. setting icon  -->
            <g id="setting_icon">
                <!-- viewBox="0 0 26.459 30.709" -->
                <path fill-rule="evenodd" clip-rule="evenodd" d="M18.08 18.735l0.602-0.603c0.666-0.666 0.666-1.745 0-2.411l-1.039-1.04c0.334-0.582 0.598-1.21 0.779-1.872h1.127c0.941 0 1.703-0.764 1.703-1.704v-0.854c0-0.94-0.762-1.704-1.703-1.704h-1.111c-0.178-0.655-0.43-1.279-0.756-1.858l1-0.999c0.666-0.666 0.666-1.746 0-2.411L18.08 2.677c-0.666-0.666-1.746-0.666-2.41 0l-0.98 0.98c-0.6-0.35-1.248-0.622-1.932-0.809V1.703C12.758 0.762 11.994 0 11.053 0h-0.852C9.26 0 8.496 0.762 8.496 1.703v1.146C7.811 3.035 7.164 3.308 6.564 3.657l-0.98-0.98c-0.666-0.666-1.744-0.666-2.41 0L2.57 3.279c-0.666 0.665-0.666 1.745 0 2.411l1 0.999C3.244 7.269 2.992 7.893 2.816 8.548H1.705C0.764 8.548 0 9.312 0 10.252v0.854c0 0.94 0.764 1.704 1.705 1.704H2.83c0.184 0.662 0.445 1.29 0.781 1.872l-1.041 1.04c-0.666 0.666-0.666 1.745 0 2.411l0.604 0.603c0.666 0.666 1.744 0.666 2.41 0l1.047-1.048c0.58 0.33 1.205 0.589 1.865 0.768v1.092c0 0.941 0.764 1.705 1.705 1.705h0.852c0.941 0 1.705-0.764 1.705-1.705v-1.092c0.658-0.179 1.285-0.438 1.865-0.768l1.047 1.048C16.334 19.401 17.414 19.401 18.08 18.735zM10.627 15.393c-2.588 0-4.688-2.099-4.688-4.687 0-2.589 2.1-4.688 4.688-4.688s4.688 2.099 4.688 4.688C15.314 13.294 13.215 15.393 10.627 15.393zM10.627 8.521c-1.178 0-2.131 0.954-2.131 2.131s0.953 2.13 2.131 2.13c1.176 0 2.131-0.953 2.131-2.13S11.803 8.521 10.627 8.521zM25.633 24.548h-0.539c-0.086-0.318-0.209-0.621-0.365-0.901l0.484-0.485c0.322-0.323 0.322-0.847 0-1.169L24.92 21.7c-0.322-0.324-0.846-0.324-1.168 0l-0.477 0.475c-0.291-0.169-0.605-0.301-0.936-0.392v-0.556c0-0.455-0.371-0.825-0.828-0.825H21.1c-0.457 0-0.828 0.37-0.828 0.825v0.556c-0.332 0.091-0.645 0.223-0.936 0.392L18.859 21.7c-0.322-0.324-0.846-0.324-1.168 0l-0.293 0.292c-0.322 0.322-0.322 0.846 0 1.169l0.486 0.485c-0.16 0.28-0.281 0.583-0.367 0.901h-0.539c-0.455 0-0.826 0.37-0.826 0.827v0.413c0 0.457 0.371 0.827 0.826 0.827h0.547c0.088 0.32 0.215 0.624 0.377 0.907l-0.504 0.504c-0.322 0.323-0.322 0.847 0 1.17l0.293 0.292c0.322 0.323 0.846 0.323 1.168 0l0.508-0.507c0.283 0.159 0.586 0.284 0.904 0.371v0.53c0 0.456 0.371 0.826 0.828 0.826h0.412c0.457 0 0.828-0.37 0.828-0.826v-0.53c0.318-0.087 0.623-0.212 0.904-0.371l0.508 0.507c0.322 0.323 0.846 0.323 1.168 0l0.293-0.292c0.322-0.323 0.322-0.847 0-1.17l-0.504-0.504c0.162-0.283 0.289-0.587 0.379-0.907h0.545c0.457 0 0.826-0.37 0.826-0.827v-0.413C26.459 24.918 26.09 24.548 25.633 24.548zM21.307 27.867c-1.256 0-2.273-1.018-2.273-2.273 0-1.255 1.018-2.272 2.273-2.272 1.254 0 2.271 1.018 2.271 2.272C23.578 26.85 22.561 27.867 21.307 27.867zM21.307 24.534c-0.572 0-1.035 0.464-1.035 1.034s0.463 1.033 1.035 1.033c0.57 0 1.033-0.463 1.033-1.033S21.877 24.534 21.307 24.534z"/>
            </g>
            <!-- // 32. setting icon  -->
            
            <!-- 33. pictures icons  -->
            <g id="pictures_icon">
                <!-- viewBox="0 0 108.088 101.458" -->
                <path fill-rule="evenodd" clip-rule="evenodd" d="M88.342 93.45l-8.716-2.39 -0.02-24.103 8.336 2.35 12.016-44.868L39.085 8.128l-4.007 14.958h-6.874L34.391 0l73.697 19.75L88.342 93.45zM76.502 101.458H0V25.166h76.502V101.458zM69.869 31.801H6.63v46.436h63.239V31.801zM26.063 64.911l7.582-12.266 7.587 7.645 10.414-15.699 10.908 27.015H14.215l6.158-12.323L26.063 64.911zM21.529 51.94c-2.753 0-4.977-2.229-4.977-4.976 0-2.751 2.223-4.973 4.977-4.973 2.751 0 4.974 2.222 4.974 4.973C26.503 49.711 24.281 51.94 21.529 51.94z"/>
            </g>
            <!-- // 33. pictures icons  -->
            
            <!-- 34. block question icon  -->
            <g id="block_qu_icon">
                <!-- viewBox="0 0 66.829 57.183" -->
                <path fill-rule="evenodd" clip-rule="evenodd" d="M65.104 48.864L37.574 1.721c-2.297-2.295-6.022-2.295-8.318 0L1.722 48.864c-2.295 2.295-2.295 6.019 0 8.318h63.383C67.403 54.883 67.403 51.159 65.104 48.864zM35.655 47.985c-0.561 0.563-1.255 0.846-2.085 0.846s-1.525-0.282-2.085-0.846c-0.56-0.565-0.839-1.264-0.839-2.1 0-0.835 0.279-1.535 0.839-2.1 0.56-0.564 1.256-0.846 2.085-0.846s1.524 0.281 2.085 0.846c0.56 0.564 0.839 1.265 0.839 2.1C36.494 46.722 36.214 47.42 35.655 47.985zM41.66 28.028c-0.416 0.877-0.914 1.734-1.494 2.569l-3.361 4.762c-0.249 0.334-0.426 0.711-0.528 1.127 -0.104 0.419-0.156 0.795-0.156 1.128v1.504h-4.854v-1.754c0-0.918 0.114-1.701 0.342-2.35 0.227-0.647 0.612-1.347 1.152-2.1l3.484-4.573c0.332-0.501 0.622-1.023 0.872-1.567 0.248-0.542 0.374-1.105 0.374-1.69 0-1.169-0.384-2.172-1.152-3.009 -0.768-0.834-1.753-1.252-2.956-1.252 -1.328 0-2.334 0.449-3.019 1.347 -0.684 0.899-1.027 1.953-1.027 3.164h-4.792c0-1.294 0.228-2.485 0.686-3.571 0.456-1.086 1.078-2.015 1.867-2.788 0.787-0.772 1.721-1.368 2.8-1.786 1.079-0.417 2.241-0.627 3.485-0.627 1.203 0 2.344 0.199 3.422 0.596 1.079 0.397 2.022 0.961 2.832 1.691 0.81 0.731 1.452 1.62 1.928 2.663 0.477 1.045 0.717 2.235 0.717 3.572C42.282 26.171 42.074 27.15 41.66 28.028z"/>
            </g>
            <!-- // 34. block question icon  -->
            
            <!-- 35. block exclamation icon  -->
            <g id="block_ex_icon">
                <!-- viewBox="0 0 31.978 27.361" -->
                <path fill-rule="evenodd" clip-rule="evenodd" d="M31.152 23.382L17.979 0.823c-1.1-1.098-2.883-1.098-3.98 0L0.823 23.382c-1.098 1.098-1.098 2.88 0 3.979h30.329C32.253 26.262 32.253 24.479 31.152 23.382zM14.776 8.922c0-0.872 0.706-1.578 1.578-1.578 0.871 0 1.578 0.706 1.578 1.578v7.366c0 0.872-0.707 1.578-1.578 1.578 -0.872 0-1.578-0.706-1.578-1.578V8.922zM16.363 23.139c-0.872 0-1.579-0.707-1.579-1.579 0-0.873 0.707-1.578 1.579-1.578 0.871 0 1.579 0.705 1.579 1.578C17.942 22.432 17.234 23.139 16.363 23.139z"/>
            </g>
            <!-- // 35. block exclamation icon  -->
            
            <!-- 36. preference icon -->
            <g id="preference_icon">
                <!-- viewBox="0 0 22.244 22.246" -->
                <path fill-rule="evenodd" clip-rule="evenodd" d="M21.568 8.929c-0.797-0.002-1.594-0.008-2.391 0.004 -0.2 0.002-0.293-0.048-0.363-0.253 -0.155-0.448-0.346-0.886-0.546-1.316 -0.069-0.149-0.053-0.23 0.06-0.341 0.578-0.568 1.149-1.146 1.723-1.722 0.35-0.351 0.353-0.63 0.008-0.976 -0.716-0.717-1.433-1.433-2.149-2.148 -0.337-0.335-0.619-0.333-0.96 0.006 -0.58 0.577-1.163 1.152-1.739 1.735 -0.105 0.107-0.182 0.12-0.324 0.055 -0.432-0.198-0.869-0.39-1.317-0.545 -0.203-0.069-0.256-0.159-0.254-0.361 0.01-0.805 0.005-1.609 0.002-2.413 -0.002-0.459-0.197-0.651-0.653-0.652C11.643 0 10.622 0 9.602 0.001c-0.485 0-0.673 0.188-0.674 0.678 -0.002 0.818-0.005 1.638 0 2.457 0.001 0.148-0.043 0.215-0.19 0.271C8.271 3.579 7.81 3.77 7.356 3.974 7.215 4.037 7.139 4.027 7.032 3.919 6.451 3.331 5.863 2.75 5.276 2.168 4.956 1.85 4.665 1.847 4.349 2.161c-0.728 0.726-1.454 1.452-2.18 2.181C1.843 4.667 1.846 4.954 2.175 5.284c0.578 0.581 1.154 1.164 1.737 1.738 0.111 0.11 0.13 0.191 0.061 0.342C3.768 7.81 3.581 8.263 3.411 8.723c-0.057 0.152-0.118 0.209-0.28 0.208C2.305 8.923 1.478 8.926 0.651 8.929c-0.456 0.001-0.65 0.199-0.65 0.655 -0.002 1.021-0.001 2.04 0 3.062 0 0.483 0.188 0.671 0.678 0.672 0.82 0.001 1.639 0.003 2.459-0.003 0.149-0.001 0.214 0.046 0.269 0.191 0.176 0.466 0.367 0.925 0.571 1.378 0.062 0.138 0.064 0.214-0.048 0.324 -0.596 0.584-1.184 1.176-1.771 1.767 -0.308 0.311-0.31 0.605-0.005 0.912 0.73 0.734 1.463 1.466 2.195 2.196 0.316 0.314 0.607 0.313 0.928-0.006 0.586-0.584 1.173-1.166 1.753-1.755 0.105-0.106 0.18-0.123 0.323-0.058 0.438 0.203 0.882 0.396 1.336 0.557 0.194 0.068 0.245 0.154 0.242 0.346 -0.01 0.819-0.006 1.639-0.002 2.458 0.002 0.412 0.211 0.618 0.619 0.619 0.521 0.003 1.042 0 1.563 0.001 0.515 0 1.028 0 1.542-0.001 0.467-0.001 0.662-0.194 0.664-0.665 0.001-0.819 0.004-1.639-0.003-2.458 -0.001-0.155 0.043-0.228 0.2-0.285 0.46-0.169 0.912-0.358 1.359-0.561 0.144-0.065 0.226-0.068 0.342 0.05 0.573 0.586 1.156 1.161 1.736 1.739 0.338 0.337 0.622 0.337 0.96 0 0.717-0.717 1.433-1.433 2.148-2.149 0.339-0.339 0.34-0.623 0.004-0.959 -0.584-0.586-1.167-1.172-1.756-1.751 -0.101-0.101-0.112-0.171-0.051-0.305 0.203-0.445 0.396-0.896 0.567-1.356 0.062-0.166 0.124-0.233 0.308-0.23 0.819 0.011 1.639 0.007 2.458 0.003 0.459-0.001 0.653-0.196 0.653-0.651 0.001-1.021 0-2.042 0-3.062C22.244 9.117 22.057 8.93 21.568 8.929zM5.341 9.119C5.054 8.652 4.917 8.14 4.913 7.813c0.001-1.777 1.262-3.114 2.813-3.22 0.855-0.058 1.619 0.156 2.297 0.688 0.231 0.183 0.271 0.426 0.231 0.681 -0.015 0.095-0.123 0.217-0.217 0.253C9.112 6.561 8.355 7.166 7.609 7.782 7.087 8.214 6.581 8.665 6.213 9.249 6.043 9.518 5.537 9.438 5.341 9.119zM8.669 15.735c-0.124 0.334-0.229 0.676-0.348 1.011 -0.131 0.373-0.382 0.548-0.874 0.55 -0.333-0.013-0.674-0.195-0.892-0.573 -0.183-0.315-0.138-0.64 0.113-0.9 0.269-0.279 0.546-0.548 0.813-0.828 0.139-0.145 0.309-0.204 0.485-0.14 0.197 0.071 0.394 0.172 0.561 0.3C8.715 15.296 8.756 15.502 8.669 15.735zM11.021 15.202c-2.297-0.002-4.16-1.869-4.158-4.167 0.002-2.291 1.88-4.17 4.166-4.168 2.312 0.002 4.175 1.883 4.171 4.209C15.196 13.347 13.315 15.204 11.021 15.202zM15.422 16.859c-0.229 0.28-0.524 0.431-0.76 0.436 -0.534 0.002-0.786-0.173-0.921-0.556 -0.118-0.336-0.224-0.677-0.347-1.012 -0.082-0.225-0.046-0.427 0.134-0.563 0.173-0.132 0.374-0.236 0.578-0.312 0.177-0.064 0.346 0.003 0.482 0.146 0.256 0.27 0.522 0.529 0.782 0.797C15.681 16.114 15.702 16.515 15.422 16.859zM17.149 7.717c-0.014 0.5-0.157 0.968-0.419 1.396 -0.238 0.387-0.683 0.359-0.965 0.021 -0.395-0.47-0.816-0.93-1.288-1.32 -0.588-0.485-1.236-0.899-1.865-1.334 -0.133-0.092-0.29-0.152-0.442-0.208 -0.438-0.16-0.521-0.649-0.159-0.961 0.542-0.466 1.275-0.727 2.037-0.727C15.822 4.586 17.198 5.974 17.149 7.717z"/>
                <path fill-rule="evenodd" clip-rule="evenodd" d="M12.719 12.313h-1.87c-0.344 0-0.623-0.28-0.623-0.623V9.195c0-0.345 0.279-0.623 0.623-0.623 0.345 0 0.624 0.278 0.624 0.623v1.871h1.246c0.345 0 0.624 0.279 0.624 0.624C13.343 12.033 13.063 12.313 12.719 12.313z"/>
            </g>
            <!-- // 36. preference icon -->
            
            <!-- 37. videos icons  -->
            <g id="videos_icon">
                <!-- viewBox="0 0 85.695 85.699" -->
                <path d="M71.664 0H14.03C6.273 0 0 6.274 0 14.016v57.66c0 7.742 6.273 14.023 14.03 14.023h57.633c7.759 0 14.031-6.281 14.031-14.023v-57.66C85.695 6.274 79.423 0 71.664 0zM47.573 57.228l-24.9 14.373V42.852 14.09l24.9 14.379 24.898 14.383L47.573 57.228z"/>
            </g>
            <!-- // 37. videos icons  -->
            
            <!-- 38. double left back arrow -->
            <g id="dbleBacklftarw">
                <!-- viewBox="0 0 110 110" -->
                <circle cx="16.3" cy="16.3" r="16.3"/>
                <path fill="#FFFFFF" stroke="#FFFFFF" stroke-width="0.3" stroke-miterlimit="10" d="M8 16.1l8.3-7.9 -0.9-0.9L7 15.1 6.1 16l9.3 9.3 0.9-0.9L8 16.1zM15.7 16.1L24 8.2l-0.9-0.9 -8.4 7.8L13.7 16l9.3 9.3 0.9-0.9L15.7 16.1z"/>
            </g>
            <!-- // 38. double left back arrow -->
            
            <!-- 39. defalt icon  -->
            <g id="defalt_icon">
                <!-- viewBox="0 0 20.111 19.942" -->
                <path d="M19.736 9.168l-1.58-0.251c-0.205-0.033-0.384-0.077-0.395-0.099S17.694 8.568 17.695 8.5c0-0.069 0.15-0.207 0.333-0.31l1.397-0.777c0.184-0.101 0.273-0.344 0.203-0.541l-0.248-0.681c-0.071-0.196-0.298-0.324-0.503-0.284l-1.57 0.304c-0.205 0.039-0.388 0.059-0.404 0.042 -0.018-0.017-0.148-0.213-0.172-0.277 -0.022-0.064 0.07-0.247 0.207-0.405l1.048-1.207c0.137-0.158 0.14-0.418 0.005-0.578L17.525 3.23c-0.134-0.16-0.39-0.203-0.568-0.096l-1.373 0.822c-0.179 0.108-0.344 0.188-0.365 0.179 -0.022-0.01-0.213-0.15-0.257-0.203 -0.043-0.053-0.018-0.255 0.057-0.449l0.571-1.495c0.074-0.194-0.013-0.438-0.193-0.544l-0.626-0.361c-0.181-0.105-0.438-0.059-0.568 0.104l-1.008 1.243c-0.132 0.161-0.259 0.293-0.283 0.292 -0.023-0.001-0.251-0.067-0.31-0.104 -0.06-0.034-0.105-0.232-0.102-0.442l0.026-1.599c0.003-0.208-0.163-0.409-0.368-0.445l-0.714-0.125c-0.205-0.037-0.429 0.095-0.496 0.291l-0.523 1.514c-0.067 0.197-0.143 0.363-0.166 0.371C10.236 2.189 10 2.205 9.933 2.192 9.866 2.179 9.755 2.008 9.687 1.811L9.165 0.297C9.098 0.101 8.872-0.031 8.667 0.006L7.953 0.13C7.748 0.167 7.582 0.369 7.585 0.577l0.027 1.6c0.004 0.209-0.01 0.392-0.028 0.406 -0.02 0.014-0.236 0.11-0.304 0.121C7.212 2.715 7.049 2.592 6.917 2.429L5.909 1.186C5.778 1.024 5.523 0.977 5.343 1.081L4.715 1.444c-0.181 0.104-0.268 0.35-0.193 0.544l0.572 1.494c0.075 0.195 0.125 0.371 0.111 0.391C5.192 3.893 5.022 4.057 4.962 4.09c-0.06 0.034-0.256-0.025-0.434-0.134L3.155 3.134C2.976 3.027 2.72 3.07 2.586 3.229L2.12 3.785c-0.135 0.16-0.132 0.42 0.005 0.578L3.174 5.57C3.312 5.728 3.419 5.876 3.413 5.9S3.302 6.135 3.259 6.188C3.213 6.239 3.009 6.25 2.805 6.209L1.233 5.907C1.028 5.867 0.802 5.995 0.73 6.191L0.482 6.872c-0.07 0.197 0.021 0.44 0.203 0.541l1.398 0.776C2.266 8.292 2.418 8.394 2.42 8.417c0.004 0.025-0.022 0.26-0.047 0.324C2.351 8.805 2.162 8.884 1.956 8.917L0.375 9.169C0.168 9.202 0 9.399 0 9.608l0.001 0.725c0 0.209 0.168 0.407 0.374 0.439l1.581 0.252c0.206 0.033 0.383 0.077 0.395 0.098 0.01 0.021 0.066 0.252 0.066 0.32 -0.001 0.068-0.151 0.208-0.333 0.311l-1.4 0.775c-0.182 0.102-0.271 0.345-0.201 0.541L0.73 13.75c0.072 0.196 0.298 0.324 0.503 0.284l1.571-0.304c0.204-0.04 0.387-0.059 0.404-0.043 0.018 0.017 0.147 0.214 0.171 0.278 0.023 0.065-0.07 0.246-0.207 0.403l-1.049 1.209c-0.136 0.158-0.139 0.418-0.005 0.578l0.467 0.556c0.134 0.159 0.392 0.202 0.569 0.095l1.372-0.822c0.179-0.107 0.344-0.188 0.365-0.179 0.023 0.01 0.213 0.15 0.257 0.203s0.018 0.255-0.057 0.449l-0.571 1.496c-0.076 0.194 0.011 0.439 0.191 0.543l0.63 0.362c0.181 0.104 0.436 0.058 0.568-0.104l1.006-1.242c0.132-0.163 0.26-0.294 0.283-0.293 0.024 0.001 0.251 0.067 0.311 0.103 0.059 0.033 0.104 0.233 0.101 0.441l-0.026 1.601c-0.003 0.209 0.161 0.409 0.367 0.446l0.715 0.125c0.205 0.036 0.429-0.096 0.498-0.292l0.521-1.514c0.067-0.196 0.143-0.363 0.166-0.37 0.022-0.007 0.258-0.023 0.325-0.011 0.069 0.013 0.18 0.185 0.247 0.381l0.523 1.514c0.068 0.197 0.291 0.329 0.497 0.292l0.714-0.125c0.206-0.037 0.37-0.237 0.367-0.445L12.5 17.764c-0.004-0.208 0.009-0.391 0.028-0.404 0.02-0.015 0.235-0.11 0.303-0.121 0.069-0.012 0.231 0.111 0.363 0.274l1.009 1.242c0.131 0.162 0.387 0.209 0.567 0.104l0.628-0.362c0.179-0.104 0.268-0.349 0.191-0.544l-0.571-1.494c-0.076-0.195-0.125-0.37-0.111-0.391 0.013-0.021 0.185-0.185 0.244-0.218 0.059-0.034 0.254 0.026 0.433 0.134l1.373 0.822c0.179 0.107 0.436 0.064 0.569-0.095l0.466-0.556c0.134-0.16 0.131-0.42-0.006-0.578l-1.048-1.207c-0.137-0.158-0.244-0.306-0.239-0.33 0.006-0.023 0.11-0.235 0.154-0.287 0.045-0.053 0.249-0.063 0.454-0.023l1.57 0.304c0.205 0.04 0.432-0.089 0.503-0.284l0.248-0.681c0.07-0.197-0.02-0.44-0.203-0.541l-1.397-0.776c-0.183-0.103-0.335-0.205-0.337-0.229 -0.004-0.024 0.06-0.379 0.07-0.401 0.011-0.021 0.189-0.065 0.395-0.099l1.58-0.251c0.207-0.033 0.375-0.232 0.375-0.44V9.609C20.111 9.399 19.943 9.202 19.736 9.168zM10.064 3.95c3.173 0 5.773 2.469 5.999 5.585h-5.681l-2.95-4.971C8.23 4.173 9.12 3.95 10.064 3.95zM6.747 14.993c-1.628-1.08-2.704-2.926-2.704-5.021 0-2.099 1.081-3.948 2.714-5.026l2.954 4.979L6.747 14.993zM10.064 15.993c-0.948 0-1.842-0.227-2.642-0.618l2.961-5.063h5.686C15.891 13.473 13.271 15.993 10.064 15.993z"/>
            </g>
            <!-- 39. defalt icon -->
            
            <!-- 40. lower volume icons -->
            <g id="lower-volume_icon">
                <!-- viewBox="0 0 18.001 26" -->
                <polygon points="7.916,8 0,8 0,18 7.916,18 18.001,26 18.001,0 "/>
            </g>
            <!-- // 40. lower volume icons -->
            
            <!-- 41. higher volume icons -->
            <g id="higher-volume_icon">
                <!-- viewBox="0 0 47.334 42.456" -->
                <polygon points="9.85,15.12 1.934,15.12 1.934,25.12 9.85,25.12 19.935,33.12 19.935,7.12 "/>
                <path d="M30.752 32.952c2.536-3.385 4.096-7.885 4.096-12.832 0-4.945-1.56-9.447-4.096-12.828l-1.55 1.236c2.259 3.035 3.646 7.111 3.646 11.592 0 4.482-1.387 8.557-3.646 11.592L30.752 32.952z"/>
                <path d="M24.924 28.293c1.223-2.426 1.924-5.209 1.924-8.174 0-2.963-0.701-5.744-1.924-8.174l-1.6 1.279c0.97 2.066 1.523 4.408 1.523 6.895 0 2.488-0.554 4.83-1.523 6.895L24.924 28.293z"/>
                <path d="M36.672 2.559l-1.55 1.238c3.458 3.625 5.726 9.584 5.726 16.322 0 6.74-2.268 12.699-5.726 16.324l1.55 1.238c3.748-4.02 6.176-10.395 6.176-17.563C42.848 12.954 40.42 6.579 36.672 2.559z"/>
            </g>
            <!-- // 41. higher volume icons -->
                       
        </defs>
    </Viewbox>
</svg>